<?xml version="1.0" encoding="UTF-8" standalone="no"?>
<!-- Created with Inkscape (http://www.inkscape.org/) -->

<svg
   xmlns:dc="http://purl.org/dc/elements/1.1/"
   xmlns:cc="http://creativecommons.org/ns#"
   xmlns:rdf="http://www.w3.org/1999/02/22-rdf-syntax-ns#"
   xmlns:svg="http://www.w3.org/2000/svg"
   xmlns="http://www.w3.org/2000/svg"
   xmlns:sodipodi="http://sodipodi.sourceforge.net/DTD/sodipodi-0.dtd"
   xmlns:inkscape="http://www.inkscape.org/namespaces/inkscape"
   width="36"
   height="12.000001"
   id="svg5371"
   version="1.1"
   inkscape:version="0.48.2 r9819"
   sodipodi:docname="map_features.svg">
  <defs
     id="defs5373" />
  <sodipodi:namedview
     id="base"
     pagecolor="#ffffff"
     bordercolor="#666666"
     borderopacity="1.0"
     inkscape:pageopacity="0.0"
     inkscape:pageshadow="2"
     inkscape:zoom="11.313709"
     inkscape:cx="14.739346"
     inkscape:cy="3.4609456"
     inkscape:document-units="px"
     inkscape:current-layer="layer1"
     showgrid="true"
     inkscape:snap-bbox="true"
     inkscape:snap-nodes="true"
     inkscape:window-width="1099"
     inkscape:window-height="750"
     inkscape:window-x="180"
     inkscape:window-y="86"
     inkscape:window-maximized="0"
     fit-margin-top="0"
     fit-margin-left="0"
     fit-margin-right="0"
     fit-margin-bottom="0">
    <inkscape:grid
       type="xygrid"
       id="grid5379"
       empspacing="5"
       visible="true"
       enabled="true"
       snapvisiblegridlinesonly="true" />
  </sodipodi:namedview>
  <metadata
     id="metadata5376">
    <rdf:RDF>
      <cc:Work
         rdf:about="">
        <dc:format>image/svg+xml</dc:format>
        <dc:type
           rdf:resource="http://purl.org/dc/dcmitype/StillImage" />
        <dc:title></dc:title>
      </cc:Work>
    </rdf:RDF>
  </metadata>
  <g
     inkscape:label="Layer 1"
     inkscape:groupmode="layer"
     id="layer1"
     transform="translate(-213,-371.36218)">
    <g
       id="roadblock1"
       inkscape:label="roadblock1">
      <rect
         ry="0"
         rx="0"
         y="371.36218"
         x="213"
         height="12.000001"
         width="12.000001"
         id="rect5417"
         style="color:#000000;fill:none;stroke:none;stroke-width:1;marker:none;visibility:visible;display:inline;overflow:visible;enable-background:accumulate" />
      <path
         style="opacity:0.5;color:#000000;fill:none;stroke:#ffffff;stroke-width:1;stroke-linecap:round;stroke-linejoin:round;stroke-miterlimit:4;stroke-opacity:1;stroke-dasharray:none;stroke-dashoffset:0;marker:none;visibility:visible;display:inline;overflow:visible;enable-background:accumulate"
         d="m 219.375,373.36218 c -0.1162,0 -0.22631,0.14316 -0.28125,0.29407 l -0.625,1.71875 -2.96875,0 c -0.277,0 -0.5,0.223 -0.5,0.5 0,0.277 0.223,0.5 0.5,0.5 l 2.59375,0 -0.34375,1 -2.25,0 c -0.277,0 -0.5,0.223 -0.5,0.5 0,0.277 0.223,0.5 0.5,0.5 l 1.875,0 -0.34375,0.9375 c -0.10988,0.30181 0.024,0.7115 0.25,0.9375 0.0652,0.0652 0.20812,0.11218 0.30804,0.11218 0.13469,0 0.25381,-0.095 0.31696,-0.26843 l 0.625,-1.71875 2.96875,0 c 0.277,0 0.5,-0.223 0.5,-0.5 0,-0.277 -0.223,-0.5 -0.5,-0.5 l -2.59375,0 0.34375,-1 2.25,0 c 0.277,0 0.5,-0.223 0.5,-0.5 0,-0.277 -0.223,-0.5 -0.5,-0.5 l -1.875,0 0.34375,-0.9375 c 0.10988,-0.30181 -0.0143,-0.72164 -0.25,-0.9375 -0.11788,-0.10793 -0.21877,-0.13782 -0.34375,-0.13782 z"
         id="path6252"
         inkscape:connector-curvature="0"
         sodipodi:nodetypes="sccsssccsssccssccsssccssscccs" />
      <path
         sodipodi:nodetypes="sccsssccsssccssccsssccssscccs"
         inkscape:connector-curvature="0"
         id="rect7723"
         d="m 219.375,373.36218 c -0.1162,0 -0.22631,0.14316 -0.28125,0.29407 l -0.625,1.71875 -2.96875,0 c -0.277,0 -0.5,0.223 -0.5,0.5 0,0.277 0.223,0.5 0.5,0.5 l 2.59375,0 -0.34375,1 -2.25,0 c -0.277,0 -0.5,0.223 -0.5,0.5 0,0.277 0.223,0.5 0.5,0.5 l 1.875,0 -0.34375,0.9375 c -0.10988,0.30181 0.024,0.7115 0.25,0.9375 0.0652,0.0652 0.20812,0.11218 0.30804,0.11218 0.13469,0 0.25381,-0.095 0.31696,-0.26843 l 0.625,-1.71875 2.96875,0 c 0.277,0 0.5,-0.223 0.5,-0.5 0,-0.277 -0.223,-0.5 -0.5,-0.5 l -2.59375,0 0.34375,-1 2.25,0 c 0.277,0 0.5,-0.223 0.5,-0.5 0,-0.277 -0.223,-0.5 -0.5,-0.5 l -1.875,0 0.34375,-0.9375 c 0.10988,-0.30181 -0.0143,-0.72164 -0.25,-0.9375 -0.11788,-0.10793 -0.21877,-0.13782 -0.34375,-0.13782 z"
         style="color:#000000;fill:#615952;fill-opacity:1;fill-rule:nonzero;stroke:none;stroke-width:1;marker:none;visibility:visible;display:inline;overflow:visible;enable-background:accumulate" />
    </g>
    <g
       id="roadblock2"
       inkscape:label="roadblock2"
       transform="translate(2,0)">
      <rect
         style="color:#000000;fill:none;stroke:none;stroke-width:1;marker:none;visibility:visible;display:inline;overflow:visible;enable-background:accumulate"
         id="rect5419"
         width="12"
         height="12"
         x="223"
         y="371.36218"
         rx="0"
         ry="0" />
      <path
         style="opacity:0.5;color:#000000;fill:none;stroke:#ffffff;stroke-width:1;stroke-linecap:round;stroke-linejoin:round;stroke-miterlimit:4;stroke-opacity:1;stroke-dasharray:none;stroke-dashoffset:0;marker:none;visibility:visible;display:inline;overflow:visible;enable-background:accumulate"
         d="m 228.5,373.36218 c -1.93299,0 -3.5,1.56701 -3.5,3.5 0,1.93299 1.56701,3.5 3.5,3.5 1.93299,0 3.5,-1.56701 3.5,-3.5 0,-1.93299 -1.56701,-3.5 -3.5,-3.5 z m -2,3 4,0 c 0.277,0 0.5,0.223 0.5,0.5 0,0.277 -0.223,0.5 -0.5,0.5 l -4,0 c -0.277,0 -0.5,-0.223 -0.5,-0.5 0,-0.277 0.223,-0.5 0.5,-0.5 z"
         id="path6244"
         inkscape:connector-curvature="0" />
      <path
         inkscape:connector-curvature="0"
         id="path7731"
         d="m 228.5,373.36218 c -1.93299,0 -3.5,1.56701 -3.5,3.5 0,1.93299 1.56701,3.5 3.5,3.5 1.93299,0 3.5,-1.56701 3.5,-3.5 0,-1.93299 -1.56701,-3.5 -3.5,-3.5 z m -2,3 4,0 c 0.277,0 0.5,0.223 0.5,0.5 0,0.277 -0.223,0.5 -0.5,0.5 l -4,0 c -0.277,0 -0.5,-0.223 -0.5,-0.5 0,-0.277 0.223,-0.5 0.5,-0.5 z"
         style="color:#000000;fill:#615952;fill-opacity:1;fill-rule:nonzero;stroke:none;stroke-width:1;marker:none;visibility:visible;display:inline;overflow:visible;enable-background:accumulate" />
    </g>
    <g
       id="roadblock3"
       inkscape:label="roadblock3"
       transform="translate(4,0)">
      <path
         style="opacity:0.5;color:#000000;fill:none;stroke:#ffffff;stroke-width:1;stroke-linecap:round;stroke-linejoin:round;marker:none;visibility:visible;display:inline;overflow:visible;enable-background:accumulate"
         d="m 235,373.36218 c -0.554,0 -1,0.446 -1,1 l 0,7 3,0 0,-6 6.5,0 c 0.277,0 0.5,-0.223 0.5,-0.5 0,-0.277 -0.223,-0.5 -0.5,-0.5 l -6.5,0 c 0,-0.554 -0.446,-1 -1,-1 z"
         id="path5461"
         inkscape:connector-curvature="0"
         sodipodi:nodetypes="sccccssscss" />
      <rect
         ry="0"
         rx="0"
         y="371.36218"
         x="233"
         height="12"
         width="12"
         id="rect5421"
         style="color:#000000;fill:none;stroke:none;stroke-width:1;marker:none;visibility:visible;display:inline;overflow:visible;enable-background:accumulate" />
      <path
         inkscape:connector-curvature="0"
         id="rect5296"
         d="m 235,373.36218 c -0.554,0 -1,0.446 -1,1 l 0,7 3,0 0,-6 6.5,0 c 0.277,0 0.5,-0.223 0.5,-0.5 0,-0.277 -0.223,-0.5 -0.5,-0.5 l -6.5,0 c 0,-0.554 -0.446,-1 -1,-1 z"
         style="color:#000000;fill:#615952;fill-opacity:1;fill-rule:nonzero;stroke:none;stroke-width:1;marker:none;visibility:visible;display:inline;overflow:visible;enable-background:accumulate"
         sodipodi:nodetypes="sccccssscss" />
    </g>
  </g>
</svg>
